<?xml version="1.0" encoding="UTF-8" standalone="no"?>
<svg
   xmlns:dc="http://purl.org/dc/elements/1.1/"
   xmlns:cc="http://creativecommons.org/ns#"
   xmlns:rdf="http://www.w3.org/1999/02/22-rdf-syntax-ns#"
   xmlns:svg="http://www.w3.org/2000/svg"
   xmlns="http://www.w3.org/2000/svg"
   version="1.1"
   enable-background="new -28 126 243 50"
   viewBox="-28 126 243 50"
   height="50"
   width="243"
   id="Layer_1">
  <metadata
     id="metadata15">
    <rdf:RDF>
      <cc:Work
         rdf:about="">
        <dc:format>image/svg+xml</dc:format>
        <dc:type
           rdf:resource="http://purl.org/dc/dcmitype/StillImage" />
        <dc:title></dc:title>
      </cc:Work>
    </rdf:RDF>
  </metadata>
  <defs
     id="defs13" />
  <rect
     rx="0"
     ry="25.421257"
     y="125.57253"
     x="-28.415041"
     height="50.842514"
     width="243.83655"
     id="rect825"
     style="fill:#0c7f7c;fill-opacity:1;stroke:none;stroke-width:3.72908974;stroke-linecap:round;stroke-linejoin:round;stroke-miterlimit:0;stroke-dasharray:none;stroke-opacity:1;paint-order:stroke fill markers" />
  <g
     style="stroke:none;stroke-opacity:1"
     fill="#FFF"
     id="g8">
    <path
       style="stroke:none;stroke-opacity:1"
       id="path2"
       d="M63.5 154.5v-.1zM74.5 174.5zM77.5 156.8c-2.1-2.5-5-3.8-8.5-3.7-1.9 0-3.8.5-5.5 1.4s-3.1 2.4-4.2 4.4c-1 1.9-1.6 3.9-1.6 5.9 0 2.7.9 5.2 2.6 7.4 1 1.3 2.2 2.3 3.6 2.9 1.4.7 3 1 4.7 1 2.1 0 4.1-.5 5.8-1.5 1.8-1 3.1-2.5 4.1-4.5s1.5-3.9 1.5-5.9c.2-2.8-.7-5.3-2.5-7.4zM65 170.5c-1.3-2.1-1.9-4.7-1.9-7.7 0-1.9.3-3.4.8-4.5.5-1.2 1.2-1.9 1.9-2.3.8-.5 1.6-.7 2.4-.7s1.6.2 2.3.5c.7.3 1.3.8 1.9 1.5 1.6 2.1 2.5 4.9 2.5 8.6 0 1.5-.1 2.7-.4 3.7-.2 1-.6 1.8-1.1 2.3-1 1.1-2.1 1.7-3.6 1.7-1 0-1.9-.3-2.7-.8-.8-.5-1.5-1.2-2.1-2.3zM97.8 169.3c0-1.3-.5-2.5-1.3-3.6-.9-1.1-2.2-2-3.9-2.7l-3.6-1.6c-1.5-.7-2.5-1.3-2.9-1.9-.5-.5-.7-1.2-.7-2 0-.3.1-.5.2-.8s.4-.5.7-.8c.6-.5 1.4-.8 2.5-.8 1.4 0 2.6.4 3.5 1.1.9.7 1.7 2.2 2.3 4.4l.1.3h1.5V153h-1.4l-.1.2c-.2.3-.3.6-.4.6s-.2.1-.4.1c-.1 0-.3 0-.5-.1-.3-.1-.6-.1-1-.3-1.3-.4-2.4-.5-3.3-.5-2.1 0-3.8.6-5.2 1.8-1.3 1.2-2 2.8-2 4.6 0 1.4.4 2.6 1.2 3.5.8 1 2.4 2 4.8 3.1s3.9 2 4.6 2.7c.7.7 1.1 1.4 1.1 2.4 0 .8-.3 1.4-.9 2-.6.5-1.4.8-2.5.8-1.5 0-2.9-.5-4.1-1.5s-2.1-2.5-2.5-4.6l-.1-.3H82v8.2h1.4l.1-.2c.1-.2.2-.3.3-.3.1-.1.2-.1.3-.1.3 0 .7.1 1.2.2 1.8.5 3.4.7 4.8.7 2 0 3.8-.6 5.4-1.8.8-.6 1.4-1.3 1.9-2.2.1-.8.4-1.7.4-2.7zM82.9 163zM193.5 166.3l-.1.3c-.8 1.8-1.7 3.1-2.5 3.7-1.2 1-2.6 1.5-4.1 1.5-1.1 0-2-.2-2.9-.7-.8-.5-1.6-1.1-2.2-2-1.3-1.9-1.9-4-1.9-6.5 0-2.4.6-4.3 1.9-5.7.9-1.1 2.1-1.6 3.7-1.6 1 0 1.7.2 2.2.6.5.4.8 1 .9 1.8.1.5.1.9.2 1.2.1.3.2.6.4.8.3.3.6.6 1 .7.4.2.9.2 1.4.2.8 0 1.4-.2 1.9-.6s.7-1 .7-1.7-.2-1.3-.6-1.9c-.4-.6-.9-1.2-1.7-1.7-1.5-1.1-3.4-1.7-5.6-1.7-3 0-5.6 1.1-7.8 3.2s-3.2 4.9-3.2 8.3c0 3.5 1 6.3 2.9 8.3 1.9 2.1 4.3 3.1 6.9 3.1 2.2 0 4.2-.8 6.1-2.3 1.8-1.5 3-3.7 3.7-6.6l.1-.3-.2-.1-1.2-.3zM191 173.6zM191.8 154.8zM41.1 173.3c.1 0 .2-.1.2-.2.1-.1.1-.2.1-.2 0-.1 0-.3-.1-.4s-.2-.1-.4-.1H39.6c-.5 0-.8 0-1.1-.1-.2-.1-.4-.2-.5-.4-.1-.1-.1-.3-.2-.7-.1-.9-.2-2.5-.2-4.6 0-3.4.2-7.4.3-10v-1.9c0-.3 0-.6-.2-.8-.2-.2-.4-.3-.8-.3h-.1l-6.7.4c-.3 0-.6.1-.7.2l-.2.2v.3c0 .1 0 .2.1.3s.3.2.5.2.5.1.9.1c.4.1.8.1 1.2.2.3.1.6.2.8.4.1.1.3.4.3.9.2 1.2.2 3.5.2 7 0 1.2 0 2.5-.1 3.7 0 .6-.1 1.1-.2 1.5-.1.4-.2.8-.3 1-.7 1.3-2.5 2.1-4.2 2.1-1.6 0-2.6-.4-3.2-1.1-.6-.7-.9-1.6-.9-2.7 0-6.7.1-9.6.1-11.4v-.4-1.6s0-.6-.2-.8-.4-.3-.8-.3h-.1l-7 .2c-.3 0-.6.1-.7.2l-.2.2v.3c0 .1 0 .2.1.3s.3.2.5.2.5.1.9.1c.4.1.8.1 1.2.2.3.1.6.2.8.4.2.1.7.6.7 1.1V157.6c0 1-.2 8.8-.2 11.5 0 2.4.9 4 2.1 5 1.2 1 2.7 1.3 4 1.3 2.1 0 3.8-.9 5-1.8.6-.5 1.1-.9 1.5-1.2.2-.2.3-.3.5-.4.1 0 .1-.1.1-.1h.1s.1.1.1.2v.4c0 .9-.1 1.5-.1 2.2 0 .3 0 .5.1.7 0 .1.1.2.2.2s.2.1.3.1h.2c.2-.1.5-.2.7-.2 1.6-.7 5.2-1.6 6.1-1.7.5-.3.7-.4.8-.5zM2 161.7c.1-.2.2-.2.4-.3h.8c4.2 0 7.8.3 10.8.3.7 0 1.2 0 1.6-.2.2-.1.4-.2.5-.4.1-.2.1-.5.1-.8 0-3.6-3.5-7-8.1-7-3.1 0-5.9 1.2-8 3.3-2.1 2.1-3.4 5-3.4 8.5 0 3.3 1.1 6 2.9 7.9s4.4 2.9 7.2 2.9c2.6 0 5-1.2 6.6-2.5.8-.7 1.5-1.3 1.9-1.9.2-.3.4-.5.5-.8.1-.2.2-.4.2-.6 0-.1 0-.2-.1-.3s-.2-.1-.4-.1c-.1 0-.1 0-.2.1s-.2.1-.3.2c-.7.7-2.5 2.6-5.9 2.6-2.7 0-4.6-1.1-5.8-2.7-1.2-1.7-1.7-3.9-1.7-6.4 0-.5 0-.9.1-1.2.1-.4.2-.5.3-.6zm5.7-7.2c1.4 0 2.3.5 2.8 1.1.6.6.8 1.3.8 1.7 0 .6-.2 1-.6 1.3-.6.5-1.5.8-2.5 1-1 .2-2.2.2-3.2.2-1.1 0-1.9 0-2.3-.2-.2-.1-.3-.1-.4-.2-.1-.1-.1-.1-.1-.3 0-.8.5-2 1.4-3 1-.8 2.3-1.6 4.1-1.6zM135.4 161.7c.1-.2.2-.2.4-.3h.8c4.2 0 7.8.3 10.8.3.7 0 1.2 0 1.6-.2.2-.1.4-.2.5-.4.1-.2.1-.5.1-.8 0-3.6-3.5-7-8.1-7-3.1 0-5.9 1.2-8 3.3-2.1 2.1-3.4 5-3.4 8.5 0 3.3 1.1 6 2.9 7.9 1.8 1.9 4.4 2.9 7.2 2.9 2.6 0 5-1.2 6.6-2.5.8-.7 1.5-1.3 2-1.9.2-.3.4-.5.5-.8.1-.2.2-.4.2-.6 0-.1 0-.2-.1-.3s-.2-.1-.4-.1c-.1 0-.1 0-.2.1s-.2.1-.3.2c-.7.7-2.5 2.6-5.9 2.6-2.7 0-4.6-1.1-5.8-2.7-1.2-1.7-1.7-3.9-1.7-6.4 0-.5 0-.9.1-1.2.1-.4.1-.5.2-.6zm5.8-7.2c1.4 0 2.3.5 2.8 1.1.6.6.8 1.3.8 1.7 0 .6-.2 1-.6 1.3-.6.5-1.5.8-2.5 1-1 .2-2.2.2-3.2.2-1.1 0-1.9 0-2.3-.2-.2-.1-.3-.1-.4-.2-.1-.1-.1-.1-.1-.3 0-.8.5-2 1.4-3 .9-.8 2.3-1.6 4.1-1.6zM-2.7 174.2c-.1-.1-.3-.2-.5-.2s-.4-.1-.6-.1c-.5-.1-.9-.2-1.2-.4-.2-.1-.3-.2-.4-.4-.2-.3-.3-.8-.3-1.6v-3.6-6.7c0-.8 0-1.7-.2-2.6-.1-.9-.4-1.8-.8-2.4-1.1-1.6-2.8-2.8-5.6-2.8-2.3 0-3.9.9-5 1.9-.6.5-1 .9-1.4 1.3-.2.2-.3.3-.5.4h-.4s-.1-.1-.1-.2V154.2c0-.3 0-.5-.1-.7 0-.1-.1-.2-.2-.3-.1-.1-.2-.1-.3-.1-.2 0-.3.1-.5.2-.1.1-.3.2-.3.2-1.9 1.6-3.8 2.9-5.7 3.6-.1 0-.2.1-.3.2-.1.1-.1.2-.1.4 0 .1.1.2.1.3.1.1.3.1.5.2.2 0 .4.1.7.1.5.1 1 .3 1.1.5.2.2.3.8.4 1.7.1.9.1 2.1.1 3.5 0 4.2 0 6.9-.3 8.5-.1.5-.2.7-.5.9-.2.2-.6.3-1.2.4-.4.1-.8.2-1.1.3-.1.1-.3.1-.4.2-.1 0-.2.2-.2.3 0 .1 0 .2.1.3 0 .1.1.1.1.1.2.1.4.1.8.1.2 0 1.1 0 2.2-.1 1 0 2.1-.1 2.5-.1.4 0 1.4 0 2.4.1 1 0 1.9.1 2.2.1h.2c.2 0 .4 0 .6-.1.1 0 .2-.1.3-.2.1-.1.1-.2.1-.3s0-.2-.1-.2c-.1-.1-.2-.2-.3-.2-.2-.1-.4-.2-.7-.2-.2-.1-.5-.1-.6-.2-.3-.1-.7-.3-.9-.5-.2-.2-.4-.4-.4-.8-.3-1.3-.3-3-.3-6.8 0-1.4 0-2.8.1-4.1s.3-2.3.7-3c.3-.5.8-1 1.4-1.5.7-.4 1.5-.7 2.3-.7.9 0 1.5.1 2.1.3.6.2 1.1.6 1.6 1.2.4.5.7 1.3.8 2.5.1 1.2.1 2.7.1 4.6v.8c0 3.5 0 5.3-.2 6.5-.1.6-.3.9-.5 1.1-.3.2-.6.4-1.1.5-.4.1-.8.2-1.1.3-.2 0-.3.1-.5.2-.1 0-.1.1-.2.2 0 .1-.1.1-.1.2s0 .2.1.3c.1.1.3.1.5.2h.8c.6 0 3.4-.2 4.7-.2 1.2 0 3.9.2 4.5.2.3 0 .5 0 .7-.1.1 0 .2-.1.3-.2.1-.1.1-.2.1-.3.1-.2.1-.3 0-.4zm-9.6-.4z" />
    <path
       style="stroke:none;stroke-opacity:1"
       id="path4"
       d="M57.4 154.2c-.6-.6-1.3-.9-2.3-.9-1.7 0-2.9.9-3.8 1.9-.5.5-.8.9-1.1 1.2-.1.2-.3.3-.4.4-.1.1-.2.1-.2.1V154.2c0-.3-.1-.6-.2-.7-.1-.2-.3-.2-.5-.2-.1 0-.3 0-.5.1s-.4.3-.8.6c-.6.5-1.6 1.2-2.6 1.8-.9.6-1.8 1-2.2 1.2-.3.1-.5.2-.7.3-.1.1-.2.1-.2.2-.1.1-.1.2-.1.3 0 .1 0 .2.1.2.1.1.2.1.3.2.1 0 .2 0 .3.1.6 0 1 .1 1.3.2.2.1.4.3.5.5.2.4.3.9.4 1.8.1.9.1 2.1.1 3.7 0 2.9 0 4.7-.1 6s-.1 1.9-.3 2.3c-.1.3-.5.6-1 .8-.5.2-.9.3-1.1.3-.3.1-.5.1-.8.2-.1 0-.2.1-.3.2-.1.1-.1.2-.1.3 0 .1.1.2.2.3.1.1.3.1.5.2h.5c.2 0 1.1 0 2.2-.1 1.1 0 2.3-.1 3-.1.8 0 2 0 3.2.1 1.1 0 2.1.1 2.3.1h.7c.1 0 .2-.1.3-.1.1-.1.2-.2.2-.3 0-.1 0-.3-.1-.4-.1-.1-.3-.2-.4-.2-.3-.1-.5-.1-.7-.1-.3-.1-1-.2-1.7-.4-.3-.1-.7-.2-.9-.4-.3-.1-.5-.3-.6-.5-.1-.1-.1-.3-.2-.6-.2-.8-.2-2.4-.2-4.3v-2.3c0-2 0-3.6.1-4.9.1-1.3.4-2.2.7-2.6.2-.2.3-.4.5-.6.2-.2.5-.3.8-.3.4 0 .7.1 1 .3.4.2.8.6 1.2 1 .4.3 1 .6 1.7.6s1.4-.3 1.9-.8.8-1.2.8-2c.2-.7-.1-1.5-.7-2zM42.8 156.9zM175.4 174.5c-.1-.1-.3-.2-.5-.2s-.4-.1-.6-.1c-.5-.1-.9-.2-1.2-.4-.2-.1-.3-.2-.4-.4-.2-.3-.3-.8-.3-1.6v-3.6-6.7c0-.8 0-1.7-.2-2.6-.1-.9-.4-1.8-.8-2.4-1.1-1.6-2.8-2.8-5.6-2.8-2.3 0-3.9.9-5 1.9-.6.5-1 .9-1.4 1.3-.2.2-.3.3-.5.4-.1.1-.2.1-.3.1h-.1s-.1-.1-.1-.2V154.6c0-.3 0-.5-.1-.7 0-.1-.1-.2-.2-.3-.1-.1-.2-.1-.3-.1-.2 0-.3.1-.5.2-.1.1-.3.2-.3.2-1.9 1.6-3.8 2.9-5.7 3.6-.1 0-.2.1-.3.2-.1.1-.1.2-.1.4 0 .1.1.2.1.3.1.1.3.1.5.2.2 0 .4.1.7.1.5.1 1 .3 1.1.5.2.2.3.8.4 1.7.1.9.1 2.1.1 3.5 0 4.2 0 6.9-.3 8.5-.1.5-.2.7-.5.9-.2.2-.6.3-1.2.4-.4.1-.8.2-1.1.3-.1.1-.3.1-.4.2-.1.1-.2.2-.2.4 0 .1 0 .2.1.3 0 .1.1.1.2.1.2.1.4.1.8.1.2 0 1.1 0 2.2-.1 1 0 2.1-.1 2.5-.1s1.4 0 2.4.1c1 0 1.9.1 2.2.1h.2c.2 0 .4 0 .6-.1.1 0 .2-.1.3-.2.1-.1.1-.2.1-.3 0-.1 0-.2-.1-.2-.1-.1-.2-.2-.3-.2-.2-.1-.4-.2-.7-.2-.2-.1-.5-.1-.6-.2-.3-.1-.7-.3-.9-.5-.2-.2-.4-.4-.4-.8-.3-1.3-.3-3-.3-6.8 0-1.4 0-2.8.1-4.1.1-1.3.3-2.3.7-3 .3-.5.8-1 1.4-1.5.7-.4 1.5-.7 2.3-.7.9 0 1.5.1 2.1.3s1.1.6 1.6 1.2c.4.5.7 1.3.8 2.5s.1 2.7.1 4.6v.8c0 3.5 0 5.3-.2 6.5-.1.6-.3.9-.5 1.1-.3.2-.6.4-1.1.5-.4.1-.8.2-1.1.3-.2 0-.3.1-.5.2-.1 0-.1.1-.2.2 0 .1-.1.1-.1.2s0 .2.1.3c.1.1.3.1.5.2h.8c.6 0 3.4-.2 4.7-.2 1.2 0 3.9.2 4.5.2.3 0 .5 0 .7-.1.1 0 .2-.1.3-.2.1-.1.1-.2.1-.3.1-.4 0-.5-.1-.6zM123.7 150.4c.7 0 1.4-.3 1.9-.8s.8-1.1.8-1.9c0-.7-.3-1.3-.8-1.8s-1.2-.8-1.9-.8c-.8 0-1.4.3-2 .8-.5.5-.8 1.1-.8 1.8s.3 1.4.8 1.9c.6.5 1.2.8 2 .8zM129.8 174.1c-.2-.1-.4-.2-.7-.2-.2-.1-.5-.1-.6-.2-.3-.1-.7-.3-.9-.5s-.4-.4-.4-.8c-.3-1.3-.3-3-.3-6.8 0-2.8.1-8.8.1-9.1v-2.3c0-.3 0-.5-.1-.7 0-.1-.1-.2-.2-.3-.1-.1-.2-.1-.3-.1-.2 0-.3.1-.5.2-.1.1-.3.2-.3.2-1.9 1.6-3.8 2.9-5.7 3.6-.1 0-.2.1-.3.2-.1.1-.1.2-.1.4 0 .1.1.2.1.3.1.1.3.1.5.2.2 0 .4.1.7.1.5.1 1 .3 1.1.5.2.2.3.8.4 1.7.1.9.1 2.1.1 3.5 0 4.2 0 6.9-.3 8.5-.1.5-.2.7-.5.9-.2.2-.6.3-1.2.4-.4.1-.8.2-1.1.3-.1.1-.3.1-.4.2-.1.1-.2.2-.2.4 0 .1 0 .2.1.3 0 .1.1.1.2.1.2.1.4.1.8.1.2 0 1.1 0 2.2-.1 1 0 2.1-.1 2.5-.1s1.4 0 2.4.1c1 0 1.9.1 2.2.1h.2c.2 0 .4 0 .6-.1.1 0 .2-.1.3-.2.1-.1.1-.2.1-.3 0-.1 0-.2-.1-.2-.1-.2-.2-.2-.4-.3zM115.3 154.8zM117 166.3l-.1.3c-.8 1.8-1.7 3.1-2.5 3.7-1.2 1-2.6 1.5-4.1 1.5-1.1 0-2-.2-2.9-.7-.8-.5-1.6-1.1-2.2-2-1.3-1.9-1.9-4-1.9-6.5 0-2.4.6-4.3 1.9-5.7.9-1.1 2.1-1.6 3.7-1.6 1 0 1.7.2 2.2.6.5.4.8 1 .9 1.8.1.5.1.9.2 1.2.1.3.2.6.4.8.3.3.6.6 1 .7.4.2.9.2 1.4.2.8 0 1.4-.2 1.9-.6s.7-1 .7-1.7-.2-1.3-.6-1.9c-.4-.6-.9-1.2-1.7-1.7-1.5-1.1-3.4-1.7-5.6-1.7-3 0-5.6 1.1-7.8 3.2s-3.2 4.9-3.2 8.3c0 3.5 1 6.3 2.9 8.3 1.9 2.1 4.3 3.1 6.9 3.1 2.2 0 4.2-.8 6.1-2.3 1.8-1.5 3-3.7 3.7-6.6l.1-.3-.2-.1-1.2-.3zM214.5 169.5c-.1 0-.1 0-.2.1s-.2.1-.3.2c-.7.7-2.5 2.6-5.9 2.6-2.7 0-4.6-1.1-5.8-2.7-1.2-1.7-1.7-3.9-1.7-6.4 0-.5 0-.9.1-1.2 0-.2.1-.4.2-.5.1-.2.2-.2.4-.3h.8c4.2 0 7.8.3 10.8.3.7 0 1.2 0 1.6-.2.2-.1.4-.2.5-.4.1-.2.1-.5.1-.8 0-3.6-3.5-7-8.1-7-3.1 0-5.9 1.2-8 3.3-2.1 2.1-3.4 5-3.4 8.5 0 3.3 1.1 6 2.9 7.9 1.8 1.9 4.4 2.9 7.2 2.9 2.6 0 5-1.2 6.6-2.5.8-.7 1.5-1.3 1.9-1.9.2-.3.4-.5.5-.8.1-.2.2-.4.2-.6 0-.1 0-.2-.1-.3 0-.2-.2-.2-.3-.2zm-7.8-15c1.4 0 2.3.5 2.8 1.1.6.6.8 1.3.8 1.7 0 .6-.2 1-.6 1.3-.6.5-1.5.8-2.5 1-1 .2-2.2.2-3.2.2-1.1 0-1.9 0-2.3-.2-.2-.1-.3-.1-.4-.2-.1-.1-.1-.1-.1-.3 0-.8.5-2 1.4-3 .9-.8 2.3-1.6 4.1-1.6zM-27.3 145.4c.2.1.3.1.6.1.1 0 .9 0 1.7-.1.8 0 1.6-.1 1.9-.1.3 0 1.1 0 1.8.1.8 0 1.5.1 1.6.1h.7c.1 0 .2-.1.2-.1.1-.1.1-.2.1-.3 0-.1 0-.1-.1-.2s-.2-.1-.3-.2c-.2-.1-.3-.1-.5-.2-.2 0-.3-.1-.5-.1-.3-.1-.5-.2-.7-.4-.2-.1-.3-.3-.3-.6-.2-.9-.2-2.3-.2-5.2 0-1.1 0-2.2.1-3.1.1-1 .2-1.8.5-2.3.4-.3.8-.8 1.3-1.1s1.1-.5 1.8-.5 1.2.1 1.6.2c.4.2.8.4 1.2.9.3.4.5 1 .6 1.9.1.9.1 2.1.1 3.5v.6c0 2.6 0 4-.1 4.9-.1.4-.2.7-.4.8-.2.2-.5.3-.8.4-.3.1-.6.1-.9.2-.1 0-.3.1-.4.1-.1 0-.1.1-.1.1 0 .1-.1.1-.1.2s0 .2.1.2c.1.1.2.1.4.1h.6c.5 0 2.6-.1 3.6-.1.9 0 3 .1 3.4.1.2 0 .4 0 .6-.1.1 0 .2-.1.2-.1v-.1s-.1-.2-.1-.3c-.1-.1-.3-.1-.4-.2-.2 0-.3-.1-.4-.1-.4-.1-.7-.2-.9-.3l-.3-.3c-.1-.2-.2-.6-.2-1.2v-2.7-5.1c0-.6 0-1.3-.1-2s-.3-1.4-.6-1.9c-.9-1.2-2.2-2.1-4.3-2.1-1.7 0-3 .7-3.9 1.4-.6.4-1 .8-1.2 1-.2.1-.3.2-.4.3-.1.1-.2.1-.2.1v-.1-1.9c0-.2 0-.4-.1-.6 0-.1-.1-.2-.1-.2-.2-.1-.3-.2-.4-.2s-.3.1-.4.1c0 .1-.1.2-.2.3-1.5 1.2-2.9 2.2-4.4 2.7-.1 0-.2.1-.2.1-.1.1-.1.2-.1.4 0 .1 0 .2.1.3.1.1.2.1.4.1.1 0 .3 0 .5.1.4 0 .7.2.8.4.1.2.2.6.3 1.3v2.7c0 3.2 0 5.3-.2 6.5 0 .2-.1.4-.3.5-.2.1-.5.2-.9.3-.3.1-.6.1-.8.2-.1 0-.2.1-.3.2-.1.1-.2.2-.2.3 0 .1 0 .2.1.2 0 .1.1.1.1.1zM-7.7 134.5c.2.2.5.2.7.2.4 0 .8-.1 1.1-.3.4-.2.7-.5.8-.9.3-.8.6-1.8 1.1-2.5s1.3-1.2 2.4-1.2c.4 0 .8 0 1.1.2.3.1.5.4.8.8.1.3.2.7.2 1.3v.9c0 .9 0 1.5-.1 2 0 .3-.1.6-.2.8-.2.3-.4.5-.9.8-.5.3-1.2.6-2.1 1-1 .5-2.2 1.1-3.2 1.9s-1.7 1.8-1.7 3.2c0 .6.2 1.4.7 2 .5.6 1.3 1.1 2.5 1.1 2.3 0 3.9-1.4 4.7-2.6v.1c.4 1.2 1.4 2.3 3.1 2.3 1.2 0 2.1-.5 2.8-1.1.3-.3.6-.6.7-.9.2-.3.3-.5.3-.8 0-.1 0-.2-.1-.3 0-.1-.2-.2-.3-.2s-.1 0-.2.1c-.2.1-.4.3-.7.5-.3.2-.7.4-1.1.4-.2 0-.4-.1-.6-.2-.2-.1-.4-.4-.5-.7-.1-.3-.1-.7-.1-1.2 0-1.1.3-7.1.3-9.4 0-.7-.2-1.3-.4-1.7-.4-.7-1.1-1.1-1.9-1.3s-1.6-.3-2.4-.3c-2.3 0-4.1.9-5.3 1.9-.6.5-1.1 1.1-1.4 1.7-.3.6-.5 1.1-.5 1.5 0 .5.2.8.4.9zm7.2 8c-.6.8-1.2 1.3-2.1 1.3-.4 0-.8-.1-1.2-.4-.4-.3-.6-.8-.6-1.5 0-.6.2-1.2.6-1.7.5-.8 1.4-1.5 2.1-1.9.4-.2.7-.4 1-.5.1-.1.3-.1.3-.1h.2c.2 0 .3 0 .3.1.1.1.1.2.1.5 0 1.6-.1 3.3-.7 4.2zM48.3 143.6c1.4 1.4 3.4 2.2 5.5 2.2 2 0 3.8-.9 5.1-1.9.6-.5 1.1-1 1.5-1.5.2-.2.3-.4.4-.6s.2-.3.2-.4c0-.1 0-.2-.1-.3-.1-.1-.2-.1-.4-.1-.1 0-.1 0-.1.1-.1 0-.1.1-.2.2-.6.5-1.9 2-4.4 2-2.1 0-3.5-.8-4.4-2-.9-1.3-1.3-3-1.3-4.8 0-.4 0-.7.1-.9 0-.2.1-.3.1-.3 0-.3.1-.3.2-.4h.6c3.2 0 6 .2 8.2.2.5 0 .9 0 1.2-.1.2-.1.3-.2.4-.4.1-.1.1-.3.1-.6 0-2.8-2.7-5.4-6.2-5.4-2.4 0-4.5.9-6.1 2.5-1.7 1.6-2.7 3.8-2.7 6.5 0 2.5.9 4.6 2.3 6zm6.3-13.9c1 0 1.7.4 2.1.8s.6 1 .6 1.3c0 .4-.2.7-.4 1-.4.4-1.1.6-1.9.7s-1.7.1-2.4.1c-.9 0-1.4 0-1.7-.1-.2 0-.2-.1-.3-.1 0 0-.1-.1-.1-.2 0-.6.3-1.5 1-2.2.7-.7 1.7-1.3 3.1-1.3zM34.5 132.5h.3c.4 0 .7.1 1 .2.2.1.3.2.4.4.1.3.2.7.3 1.4 0 .7.1 1.6.1 2.8 0 2.2 0 3.6-.1 4.6 0 1-.1 1.5-.2 1.7-.1.2-.4.5-.7.6-.3.1-.7.2-.9.3-.2 0-.4.1-.6.2-.1 0-.2.1-.2.1-.1.1-.1.2-.1.3 0 .1.1.2.1.3.1.1.2.1.4.1h.4c.2 0 .9 0 1.7-.1.8 0 1.7-.1 2.3-.1.6 0 1.5 0 2.4.1.9 0 1.6.1 1.8.1h.5c.1 0 .2 0 .3-.1.1-.1.2-.2.1-.3 0-.1 0-.2-.1-.3-.1-.1-.2-.2-.4-.2-.1 0-.3 0-.4-.1-.3-.1-.8-.1-1.3-.3-.2-.1-.5-.2-.7-.3-.2-.1-.4-.2-.4-.4 0-.1-.1-.2-.1-.4-.1-.6-.1-1.8-.1-3.2v-1.8c0-1.5 0-2.8.1-3.7.1-1 .3-1.6.5-1.9.1-.1.2-.3.4-.4.2-.1.3-.2.6-.2s.5.1.7.2c.3.2.6.5.9.7.3.3.7.5 1.3.5.6 0 1.1-.2 1.5-.6.4-.4.6-.9.6-1.6 0-.6-.2-1.2-.7-1.7-.4-.4-1-.7-1.8-.7-1.3 0-2.2.7-2.9 1.4-.3.4-.6.7-.9 1l-.3.3-.1.1v-2.1c0-.3 0-.5-.1-.6-.1-.1-.3-.2-.4-.2s-.2 0-.4.1-.3.2-.6.5c-.5.5-1.3 1-2 1.4-.7.4-1.4.8-1.6.9-.2.1-.4.2-.5.2s-.1.1-.2.2c0 .1-.1.2-.1.2 0 .1 0 .1.1.2 0 .2.1.2.1.2z" />
    <path
       style="stroke:none;stroke-opacity:1"
       id="path6"
       d="M6.3 131.4c.1 0 .2.1.3.1h1.1c.2 0 .3 0 .4.1.1.1.2.2.2.3v.5c0 .5-.2 7.1-.2 8.5 0 1.4.2 2.7.7 3.6s1.5 1.5 2.9 1.5c1.3 0 2.6-.6 3.5-1.1.5-.3.9-.6 1.1-.9l.3-.3c0-.1.1-.1.1-.1v-.2c0-.1 0-.2-.1-.2-.1-.1-.2-.1-.3-.1h-.1c-.1 0-.2.1-.4.1-.5.2-1.4.5-2.2.5-.4 0-.8-.1-1.1-.2s-.5-.3-.6-.6c-.3-.6-.3-1.5-.3-2.9v-.6c.3-4.4.3-6.4.4-7.7v-.5c0-.1 0-.1.1-.2 0-.1 0-.1.1-.1h.3c.5 0 1.3-.1 2.3-.1h1.7c.3 0 .5 0 .7.1.1 0 .2.1.2.1.1.1.1.2.2.3v.7c0 .7-.1 6.7-.1 8.7 0 1.9.7 3.1 1.6 3.9.9.8 2.1 1 3.1 1 1.6 0 2.9-.7 3.9-1.4.5-.3.9-.7 1.1-.9.1-.1.3-.2.4-.3l.1-.1h.1s0 .1.1.1v.3c0 .7-.1 1.1-.1 1.7 0 .2 0 .4.1.5 0 .1.1.1.2.2.1 0 .2.1.2.1h.1c.1 0 .4-.1.5-.2 1.2-.5 4-1.2 4.7-1.3.2 0 .4-.1.5-.2.1 0 .1-.1.2-.1 0-.1.1-.1.1-.2s0-.2-.1-.3-.2-.1-.3-.1h-1c-.4 0-.6 0-.8-.1-.2-.1-.3-.1-.3-.3 0-.1-.1-.3-.1-.5-.1-.7-.1-1.9-.1-3.5 0-3.4.3-7.7.3-9 0-.2 0-.5-.2-.6-.1-.2-.4-.2-.6-.2h-.1l-5.2.1c-.3 0-.4 0-.6.1-.1 0-.1.1-.2.2v.2s0 .2.1.3c.1.1.2.1.4.2.2 0 .4.1.7.1.3 0 .6.1.9.1.3.1.5.1.6.3.1.1.1.2.2.5.2.8.2 2.6.2 5.5 0 .9 0 1.9-.1 2.8 0 .4-.1.8-.1 1.2-.1.3-.1.6-.2.8-.5 1-1.9 1.6-3.2 1.6-1.2 0-2-.3-2.4-.8-.5-.5-.7-1.2-.7-2.1.1-7.2.1-8.6.1-10.1 0-.4 0-.6-.1-.8-.1-.1-.2-.2-.3-.2s-.3-.1-.4-.1h-.1l-7.9.3c-.1 0-.1 0-.2-.1 0 0-.1-.1-.1-.3 0-.7.1-1.8.1-2.5 0-.2 0-.3-.1-.4-.5 0-.7-.1-.8-.1s-.2 0-.2.1c-.1.1-.2.2-.2.3-.1.1-.1.2-.2.3-.8 1.3-2.7 2.7-3.9 3.6-.3.2-.5.3-.6.4-.1.1-.2.1-.2.2-.1.1-.1.2-.1.3-.1 0 0 .1 0 .2z" />
  </g>
</svg>
